<svg width="18" height="12" viewBox="0 0 18 12" fill="none" xmlns="http://www.w3.org/2000/svg">
<g clip-path="url(#clip0_377171_3378)">
<path d="M8.99974 7.24524C8.80031 7.24557 8.60603 7.18367 8.44549 7.06863L0.876998 1.63467C0.778524 1.56391 0.695351 1.47498 0.632227 1.37296C0.569103 1.27094 0.527264 1.15784 0.5091 1.0401C0.472414 0.802317 0.534386 0.560105 0.681381 0.366747C0.828377 0.17339 1.04835 0.0447247 1.29292 0.00905743C1.53749 -0.0266099 1.78661 0.0336422 1.98549 0.176559L8.99974 5.2075L16.014 0.17656C16.1125 0.105795 16.2243 0.0545799 16.3431 0.02584C16.462 -0.00289994 16.5855 -0.00860237 16.7066 0.00905829C16.8277 0.0267189 16.944 0.0673968 17.0489 0.128769C17.1538 0.190142 17.2453 0.271007 17.3181 0.366748C17.3909 0.462489 17.4436 0.571231 17.4731 0.686765C17.5027 0.802299 17.5085 0.922362 17.4904 1.0401C17.4722 1.15784 17.4304 1.27094 17.3672 1.37296C17.3041 1.47498 17.221 1.56391 17.1225 1.63467L9.55398 7.06863C9.39344 7.18367 9.19917 7.24557 8.99974 7.24524Z" fill="#7AE229"/>
<path d="M8.99998 12.0001C8.80055 12.0005 8.60628 11.9386 8.44574 11.8235L0.877242 6.38955C0.678366 6.24664 0.546029 6.03276 0.509344 5.79498C0.472658 5.5572 0.53463 5.31499 0.681625 5.12163C0.828621 4.92827 1.0486 4.79961 1.29317 4.76394C1.53773 4.72827 1.78686 4.78853 1.98574 4.93144L8.99998 9.96239L16.0142 4.93144C16.2131 4.78853 16.4622 4.72827 16.7068 4.76394C16.9514 4.79961 17.1713 4.92827 17.3183 5.12163C17.4653 5.31499 17.5273 5.5572 17.4906 5.79498C17.4539 6.03276 17.3216 6.24664 17.1227 6.38956L9.55423 11.8235C9.39369 11.9386 9.19941 12.0005 8.99998 12.0001Z" fill="#7AE229"/>
</g>
<defs>
<clipPath id="clip0_377171_3378">
<rect width="17" height="12" fill="white" transform="translate(0.5)"/>
</clipPath>
</defs>
</svg>
